{"title":"Neds.2010.480p.BRRip.XviD.Ac3.Feel-Free","uid":6446988,"size":1257922523,"categoryP":"video","categoryS":"movies","magnet":"?xt=urn:btih:863d11235091fc3d46d8e32eb6ba4453a8e3cd27&amp;dn=Neds.2010.480p.BRRip.XviD.Ac3.Feel-Free&amp;tr=udp%3A%2F%2Ftracker.openbittorrent.com%3A80&amp;tr=udp%3A%2F%2Fopen.demonii.com%3A1337&amp;tr=udp%3A%2F%2Ftracker.coppersurfer.tk%3A6969&amp;tr=udp%3A%2F%2Fexodus.desync.com%3A6969","seeders":1,"leechers":0,"uploader":"qwersd","files":-1,"time":1307300469,"description":"Genre:Drama \nLanguage:English\nIMDb:http://www.imdb.com/title/tt1560970/\nSource:BluRay.X264.AVCHD Thanks!\nSubtitles:Romana\n\nFormat : AVI\nFormat/Info : Audio Video Interleave\nFile size : 1.17 GiB\nDuration : 2h 3mn\nOverall bit rate : 1 354 Kbps\n\nVideo\nID : 0\nFormat : MPEG-4 Visual\nFormat profile : Advanced Simple@L5\nFormat settings, BVOP : Yes\nFormat settings, QPel : No\nFormat settings, GMC : No warppoints\nFormat settings, Matrix : Default (H.263)\nCodec ID : XVID\nCodec ID/Hint : XviD\nDuration : 2h 3mn\nBit rate : 896 Kbps\nWidth : 640 pixels\nHeight : 272 pixels\nDisplay aspect ratio : 2.35:1\nFrame rate : 23.976 fps\nColor space : YUV\nChroma subsampling : 4:2:0\nBit depth : 8 bits\nScan type : Progressive\nBits/(Pixel*Frame) : 0.215\nStream size : 793 MiB (66%)\nWriting library : XviD 1.2.1 (UTC 2008-12-04)\n\nAudio\nID : 1\nFormat : AC-3\nFormat/Info : Audio Coding 3\nMode extension : CM (complete main)\nCodec ID : 2000\nDuration : 2h 3mn\nBit rate mode : Constant\nBit rate : 448 Kbps\nChannel(s) : 6 channels\nChannel positions : Front: L C R, Side: L R, LFE\nSampling rate : 48.0 KHz\nBit depth : 16 bits\nStream size : 397 MiB (33%)\nAlignment : Aligned on interleaves\nInterleave, duration : 42 ms (1.00 video frame)\nInterleave, preload duration : 512 ms\n\n\nPlot:\nPeter Mullan's third feature as a writer and director, after Orphans and The Magdalene Sisters, returns him to the 1970s Glasgow of his youth...\n\n\nScreens:\n &lt;a href=&quot;\nhttp://www.pix2links.com/images/97541788412696942931.png&quot; rel=&quot;nofollow&quot; target=&quot;_NEW&quot;&gt;\nhttp://www.pix2links.com/images/97541788412696942931.png&lt;/a&gt; &lt;a href=&quot;\nhttp://www.pix2links.com/images/38116355412955352685.png&quot; rel=&quot;nofollow&quot; target=&quot;_NEW&quot;&gt;\nhttp://www.pix2links.com/images/38116355412955352685.png&lt;/a&gt; &lt;a href=&quot;\nhttp://www.pix2links.com/images/90072750086786173728.png&quot; rel=&quot;nofollow&quot; target=&quot;_NEW&quot;&gt;\nhttp://www.pix2links.com/images/90072750086786173728.png&lt;/a&gt; &lt;a href=&quot;\nhttp://www.pix2links.com/images/45711435847478021102.png&quot; rel=&quot;nofollow&quot; target=&quot;_NEW&quot;&gt;\nhttp://www.pix2links.com/images/45711435847478021102.png&lt;/a&gt; &lt;a href=&quot;\nhttp://www.pix2links.com/images/42469049934549776041.png&quot; rel=&quot;nofollow&quot; target=&quot;_NEW&quot;&gt;\nhttp://www.pix2links.com/images/42469049934549776041.png&lt;/a&gt;\n\nGreets:\n\nINK,CRYS,IMAGINE,LKRG,FXG,3Li,FLAWL3SS,TA,iLLUSiON,ViSiON,DTRG SAFCuk009,LU,TheFalcon007,MYSTiC,PrisM,Noir,WBZ,LAP,Rx,Kingdom,SAFCuk009+Fabreezy,HDLiTE,TWiZTED,ExtraTorrentRG.ELEKTRI4KA,MAGNAT,CM8\nAnd to all the other p2p grps past and present.","torrent":{"xt":"urn:btih:863d11235091fc3d46d8e32eb6ba4453a8e3cd27","amp;dn":"Neds.2010.480p.BRRip.XviD.Ac3.Feel-Free","amp;tr":["udp%3A%2F%2Ftracker.openbittorrent.com%3A80","udp%3A%2F%2Fopen.demonii.com%3A1337","udp%3A%2F%2Ftracker.coppersurfer.tk%3A6969","udp%3A%2F%2Fexodus.desync.com%3A6969"],"infoHash":"863d11235091fc3d46d8e32eb6ba4453a8e3cd27","infoHashBuffer":{"type":"Buffer","data":[134,61,17,35,80,145,252,61,70,216,227,46,182,186,68,83,168,227,205,39]},"announce":[],"urlList":[]}}